<?xml version="1.0" encoding="utf-8"?>
<!-- Generator: Adobe Illustrator 25.4.6, SVG Export Plug-In . SVG Version: 6.00 Build 0)  -->
<svg version="1.1" id="Layer_1" xmlns="http://www.w3.org/2000/svg" xmlns:xlink="http://www.w3.org/1999/xlink" x="0px" y="0px"
	 viewBox="0 0 96.22 88.18" style="enable-background:new 0 0 96.22 88.18;" xml:space="preserve">
<style type="text/css">
	.st0{fill:none;stroke:#231F20;stroke-width:3;stroke-miterlimit:10;}
	.st1{fill:#464C51;}
	.st2{fill:none;stroke:#231F20;stroke-width:2.7133;stroke-miterlimit:10;}
</style>
<circle class="st0" cx="42.8" cy="-70.09" r="24.38"/>
<line class="st0" x1="42.8" y1="-45.71" x2="42.8" y2="-94.46"/>
<line class="st0" x1="67.18" y1="-70.09" x2="18.43" y2="-70.09"/>
<line class="st0" x1="64.18" y1="-82.76" x2="22.43" y2="-82.76"/>
<line class="st0" x1="63.18" y1="-57.7" x2="22.43" y2="-57.7"/>
<path class="st0" d="M37.05-46l-2.81-4.69c-7.06-11.8-7.11-26.52-0.13-38.37l2.94-4.99"/>
<path class="st0" d="M49.05-46l2.81-4.69c7.06-11.8,7.11-26.52,0.13-38.37l-2.94-4.99"/>
<path class="st1" d="M47.45,20.47c-14.41,0-26.13,11.72-26.13,26.13s11.72,26.13,26.13,26.13S73.58,61,73.58,46.6
	S61.86,20.47,47.45,20.47z M67.96,37.06l-6.23,0.04c-0.93-2.96-2.28-5.68-4.02-8.02c-1.26-1.7-2.67-3.12-4.19-4.26
	C59.92,26.59,65.19,31.13,67.96,37.06z M59.7,46.72c0.02,2.24-0.21,4.43-0.66,6.52h-9.79l-0.09-12.56l9.87-0.06
	C59.45,42.57,59.68,44.62,59.7,46.72z M35.38,46.7c-0.01-2.04,0.18-4.03,0.56-5.94l9.73-0.06l0.09,12.54h-9.61
	C35.65,51.15,35.39,48.95,35.38,46.7z M45.56,26.12l0.08,11.07l-8.78,0.05c0.76-2.26,1.79-4.36,3.11-6.18
	C41.58,28.83,43.49,27.17,45.56,26.12z M45.77,56.73l0.07,10.4c-2.09-1.02-4.01-2.65-5.66-4.88c-1.22-1.64-2.21-3.51-2.98-5.52
	H45.77z M49.34,67.38l-0.07-10.65h8.75c-0.74,2.05-1.71,3.94-2.92,5.61C53.45,64.65,51.48,66.34,49.34,67.38z M49.14,37.17
	L49.06,26.2c2.15,1.01,4.14,2.67,5.83,4.95c1.3,1.76,2.34,3.78,3.13,5.96L49.14,37.17z M40.97,24.92c-1.39,1.12-2.69,2.49-3.85,4.1
	c-1.74,2.41-3.07,5.21-3.96,8.25l-6.34,0.04C29.51,31.38,34.66,26.81,40.97,24.92z M25.58,40.82l6.8-0.04
	c-0.33,1.93-0.52,3.91-0.5,5.94c0.02,2.23,0.26,4.41,0.69,6.51h-6.75c-0.65-2.1-0.99-4.33-0.99-6.64
	C24.82,44.6,25.09,42.66,25.58,40.82z M27.23,56.73h6.27c0.92,2.8,2.22,5.38,3.87,7.61c1.16,1.57,2.45,2.9,3.84,4
	C35.09,66.58,30.04,62.32,27.23,56.73z M54.62,68.05c1.2-1.04,2.31-2.26,3.32-3.66c1.62-2.25,2.88-4.85,3.77-7.66h5.96
	C65,62.03,60.31,66.14,54.62,68.05z M69.08,53.23h-6.49c0.4-2.11,0.62-4.3,0.61-6.54c-0.01-2.09-0.24-4.13-0.62-6.11l6.66-0.04
	c0.54,1.93,0.83,3.96,0.83,6.05C70.08,48.91,69.73,51.13,69.08,53.23z"/>
<g>
	<circle class="st0" cx="103.99" cy="-70.84" r="24.38"/>
	<line class="st0" x1="104.16" y1="-46.46" x2="103.83" y2="-95.21"/>
	<line class="st0" x1="126.28" y1="-79.65" x2="81.53" y2="-79.37"/>
	<line class="st0" x1="126.37" y1="-62.45" x2="81.62" y2="-62.45"/>
	<path class="st2" d="M107.52-47.33c-9.49,0.06-17.26-10.41-17.35-23.4C90.08-83.72,97.7-94.3,107.2-94.36"/>
	<path class="st2" d="M100.96-47.1c9.49-0.06,17.12-10.64,17.03-23.63c-0.09-12.99-7.86-23.46-17.35-23.4"/>
</g>
</svg>
