<?xml version="1.0" encoding="utf-8"?>
<svg version="1.1" id="Layer_1" xmlns="http://www.w3.org/2000/svg" x="0px" y="0px" viewBox="0 0 20 20" style="enable-background:new 0 0 20 20;" xml:space="preserve">
  <g>
    <path class="st0" d="M10,0C4.5,0,0,4.5,0,10s4.5,10,10,10s10-4.5,10-10S15.5,0,10,0z M17.9,6.3l-2.4,0c-0.4-1.1-0.9-2.2-1.5-3.1
      c-0.5-0.7-1-1.2-1.6-1.6C14.8,2.3,16.8,4.1,17.9,6.3z M14.7,10c0,0.9-0.1,1.7-0.3,2.5h-3.7l0-4.8l3.8,0C14.6,8.5,14.7,9.2,14.7,10
      z M5.4,10c0-0.8,0.1-1.5,0.2-2.3l3.7,0l0,4.8H5.7C5.5,11.7,5.4,10.9,5.4,10z M9.3,2.2l0,4.2l-3.4,0c0.3-0.9,0.7-1.7,1.2-2.4
      C7.8,3.2,8.5,2.6,9.3,2.2z M9.4,13.9l0,4c-0.8-0.4-1.5-1-2.2-1.9c-0.5-0.6-0.8-1.3-1.1-2.1C6.1,13.9,9.4,13.9,9.4,13.9z M10.7,18
      l0-4.1H14c-0.3,0.8-0.7,1.5-1.1,2.1C12.3,16.9,11.5,17.6,10.7,18z M10.6,6.4l0-4.2c0.8,0.4,1.6,1,2.2,1.9c0.5,0.7,0.9,1.4,1.2,2.3
      L10.6,6.4z M7.5,1.7C7,2.1,6.5,2.7,6,3.3c-0.7,0.9-1.2,2-1.5,3.2l-2.4,0C3.1,4.2,5.1,2.4,7.5,1.7z M1.6,7.8l2.6,0
      C4.1,8.5,4,9.3,4,10c0,0.9,0.1,1.7,0.3,2.5H1.7c-0.2-0.8-0.4-1.7-0.4-2.5C1.3,9.2,1.4,8.5,1.6,7.8z M2.3,13.9h2.4
      c0.4,1.1,0.8,2.1,1.5,2.9c0.4,0.6,0.9,1.1,1.5,1.5C5.3,17.6,3.3,16,2.3,13.9z M12.7,18.2c0.5-0.4,0.9-0.9,1.3-1.4
      c0.6-0.9,1.1-1.9,1.4-2.9h2.3C16.7,15.9,14.9,17.5,12.7,18.2z M18.3,12.5h-2.5c0.2-0.8,0.2-1.6,0.2-2.5c0-0.8-0.1-1.6-0.2-2.3
      l2.5,0c0.2,0.7,0.3,1.5,0.3,2.3C18.7,10.9,18.5,11.7,18.3,12.5z"/>
  </g>
</svg>
