<svg xmlns="http://www.w3.org/2000/svg" width="13" height="20" viewBox="0 0 13 20">
    <path fill="#2C3E50" d="M8.525 13.443v-.793c0-.31.072-.619.218-.929.146-.31.428-.628.847-.956.656-.51 1.198-.979 1.626-1.407.428-.428.774-.852 1.038-1.27.264-.42.45-.843.56-1.271.11-.428.164-.906.164-1.434 0-.875-.164-1.649-.492-2.323-.328-.674-.774-1.239-1.338-1.694C10.583.911 9.932.57 9.194.342 8.456.114 7.668 0 6.831 0c-1.913 0-3.48.505-4.7 1.516C.911 2.527.201 3.998 0 5.93l4.208.273c.054-.674.305-1.248.751-1.721.446-.474 1.097-.71 1.954-.71.564 0 1.033.168 1.407.505.373.337.56.806.56 1.407 0 .31-.087.606-.26.888-.173.282-.414.583-.724.902-.31.318-.678.66-1.106 1.024-.428.365-.897.793-1.407 1.284-.347.328-.592.683-.738 1.066-.146.383-.219.847-.219 1.393v1.203h4.099zM6.475 20c.346 0 .674-.064.984-.191.31-.128.578-.305.806-.533.228-.228.405-.496.533-.806.127-.31.191-.638.191-.984s-.064-.674-.191-.983c-.128-.31-.305-.579-.533-.806-.228-.228-.496-.406-.806-.533-.31-.128-.638-.191-.984-.191s-.674.063-.983.19c-.31.128-.579.306-.806.534-.228.227-.405.496-.533.806-.127.31-.191.637-.191.983s.064.674.191.984c.128.31.305.578.533.806.227.228.496.405.806.533.31.127.637.191.983.191z"/>
</svg>
