<svg xmlns="http://www.w3.org/2000/svg" width="18" height="20" viewBox="0 0 18 20">
    <path fill="#2C3E50" d="M8.518 0c.213 0 .349.1.439.165.853.621 3.272 2.066 7.293 2.066h.131c.344 0 .628.27.644.614.023.48.461 11.805-8.102 17.018l-.068.041c-.104.064-.22.096-.337.096-.117 0-.234-.032-.338-.096l-.07-.043C-.45 14.651-.013 3.325.01 2.845c.017-.344.3-.614.644-.614h.131c4.023 0 6.44-1.445 7.294-2.067C8.169.1 8.304 0 8.518 0zm1.9 6.49l-2.977 3.802-.752-.484c-.437-.28-1.015-.195-1.351.201-.324.38-.277.95.103 1.274l.003.002.818.69c.784.662 1.956.562 2.618-.222.024-.03.049-.06.072-.092l2.994-4.038c.31-.417.222-1.005-.195-1.314-.42-.31-1.01-.231-1.332.18z"/>
</svg>
